<svg width="153" height="63" fill="none" xmlns="http://www.w3.org/2000/svg"><g filter="url(#filter0_d)"><path d="M25.09 35.04h8.85V39H20.95V18h12.84v3.96h-8.7v4.47h7.95v3.9h-7.95v4.71zm21.582 4.38c-3.16 0-5.77-1.05-7.83-3.15-2.06-2.1-3.09-4.69-3.09-7.77 0-3.1 1.03-5.69 3.09-7.77 2.06-2.1 4.67-3.15 7.83-3.15 1.9 0 3.65.45 5.25 1.35 1.62.88 2.88 2.08 3.78 3.6l-3.57 2.07a5.445 5.445 0 00-2.22-2.19c-.96-.54-2.04-.81-3.24-.81-2.04 0-3.69.64-4.95 1.92-1.24 1.28-1.86 2.94-1.86 4.98 0 2.02.62 3.67 1.86 4.95 1.26 1.28 2.91 1.92 4.95 1.92 1.2 0 2.28-.26 3.24-.78.98-.54 1.72-1.27 2.22-2.19l3.57 2.07c-.9 1.52-2.15 2.73-3.75 3.63-1.6.88-3.36 1.32-5.28 1.32z" fill="#4384FF"/></g><path d="M71.12 39.42c-2.08 0-3.83-.46-5.25-1.38a7.538 7.538 0 01-3-3.81l3.54-2.07c.82 2.14 2.43 3.21 4.83 3.21 1.16 0 2.01-.21 2.55-.63.54-.42.81-.95.81-1.59 0-.74-.33-1.31-.99-1.71-.66-.42-1.84-.87-3.54-1.35-.94-.28-1.74-.56-2.4-.84-.64-.28-1.29-.65-1.95-1.11a4.758 4.758 0 01-1.47-1.8c-.34-.72-.51-1.56-.51-2.52 0-1.9.67-3.41 2.01-4.53 1.36-1.14 2.99-1.71 4.89-1.71 1.7 0 3.19.42 4.47 1.26 1.3.82 2.31 1.97 3.03 3.45l-3.48 2.01c-.84-1.8-2.18-2.7-4.02-2.7-.86 0-1.54.2-2.04.6-.48.38-.72.88-.72 1.5 0 .66.27 1.2.81 1.62.56.4 1.62.84 3.18 1.32.64.2 1.12.36 1.44.48.34.1.79.27 1.35.51.58.22 1.02.43 1.32.63.32.2.68.47 1.08.81.4.34.7.69.9 1.05.22.36.4.8.54 1.32.16.5.24 1.05.24 1.65 0 1.94-.71 3.48-2.13 4.62-1.4 1.14-3.23 1.71-5.49 1.71zm18.87-15.84c2.02 0 3.74.77 5.16 2.31 1.44 1.52 2.16 3.39 2.16 5.61s-.72 4.1-2.16 5.64c-1.42 1.52-3.14 2.28-5.16 2.28-2.1 0-3.72-.73-4.86-2.19V45h-3.87V24h3.87v1.77c1.14-1.46 2.76-2.19 4.86-2.19zM86.3 34.56c.78.78 1.77 1.17 2.97 1.17 1.2 0 2.19-.39 2.97-1.17.8-.8 1.2-1.82 1.2-3.06s-.4-2.25-1.2-3.03c-.78-.8-1.77-1.2-2.97-1.2-1.2 0-2.19.4-2.97 1.2-.78.78-1.17 1.79-1.17 3.03 0 1.24.39 2.26 1.17 3.06zm26.52 2.58c-1.54 1.52-3.42 2.28-5.64 2.28-2.22 0-4.1-.76-5.64-2.28-1.52-1.54-2.28-3.42-2.28-5.64 0-2.22.76-4.09 2.28-5.61 1.54-1.54 3.42-2.31 5.64-2.31 2.22 0 4.1.77 5.64 2.31 1.54 1.52 2.31 3.39 2.31 5.61s-.77 4.1-2.31 5.64zm-8.55-2.67c.78.78 1.75 1.17 2.91 1.17 1.16 0 2.13-.39 2.91-1.17.78-.78 1.17-1.77 1.17-2.97 0-1.2-.39-2.19-1.17-2.97-.78-.78-1.75-1.17-2.91-1.17-1.16 0-2.13.39-2.91 1.17-.76.78-1.14 1.77-1.14 2.97 0 1.2.38 2.19 1.14 2.97zm17.452-7.89c.36-.96.95-1.68 1.77-2.16.84-.48 1.77-.72 2.79-.72v4.32c-1.18-.14-2.24.1-3.18.72-.92.62-1.38 1.65-1.38 3.09V39h-3.87V24h3.87v2.58zm15.814 1.14h-3.39v6.24c0 .52.13.9.39 1.14.26.24.64.38 1.14.42.5.02 1.12.01 1.86-.03V39c-2.66.3-4.54.05-5.64-.75-1.08-.8-1.62-2.23-1.62-4.29v-6.24h-2.61V24h2.61v-3.03l3.87-1.17V24h3.39v3.72zm5.976.54c0 .4.26.73.78.99.54.24 1.19.46 1.95.66.76.18 1.52.42 2.28.72.76.28 1.4.76 1.92 1.44.54.68.81 1.53.81 2.55 0 1.54-.58 2.73-1.74 3.57-1.14.82-2.57 1.23-4.29 1.23-3.08 0-5.18-1.19-6.3-3.57l3.36-1.89c.44 1.3 1.42 1.95 2.94 1.95 1.38 0 2.07-.43 2.07-1.29 0-.4-.27-.72-.81-.96-.52-.26-1.16-.49-1.92-.69-.76-.2-1.52-.45-2.28-.75-.76-.3-1.41-.77-1.95-1.41-.52-.66-.78-1.48-.78-2.46 0-1.48.54-2.64 1.62-3.48 1.1-.86 2.46-1.29 4.08-1.29 1.22 0 2.33.28 3.33.84 1 .54 1.79 1.32 2.37 2.34l-3.3 1.8c-.48-1.02-1.28-1.53-2.4-1.53-.5 0-.92.11-1.26.33-.32.22-.48.52-.48.9z" fill="#fff"/><defs><filter id="filter0_d" x=".95" y=".58" width="74.752" height="61.84" filterUnits="userSpaceOnUse" color-interpolation-filters="sRGB"><feFlood flood-opacity="0" result="BackgroundImageFix"/><feColorMatrix in="SourceAlpha" values="0 0 0 0 0 0 0 0 0 0 0 0 0 0 0 0 0 0 127 0"/><feOffset dy="3"/><feGaussianBlur stdDeviation="10"/><feColorMatrix values="0 0 0 0 0.243945 0 0 0 0 0.637269 0 0 0 0 1 0 0 0 0.5 0"/><feBlend in2="BackgroundImageFix" result="effect1_dropShadow"/><feBlend in="SourceGraphic" in2="effect1_dropShadow" result="shape"/></filter></defs></svg>