<svg width="332" height="176" fill="none" xmlns="http://www.w3.org/2000/svg"><path d="M66.109 187L.309-9h42l47.88 150.64L137.789-9h42.28l-66.08 196h-47.88zm194.3 3.92c-19.413 0-35.747-4.293-49-12.88-13.253-8.773-22.587-20.627-28-35.56l33.04-19.32c7.653 19.973 22.68 29.96 45.08 29.96 10.827 0 18.76-1.96 23.8-5.88 5.04-3.92 7.56-8.867 7.56-14.84 0-6.907-3.08-12.227-9.24-15.96-6.16-3.92-17.173-8.12-33.04-12.6-8.773-2.613-16.24-5.227-22.4-7.84-5.973-2.613-12.04-6.067-18.2-10.36-5.973-4.48-10.547-10.08-13.72-16.8-3.173-6.72-4.76-14.56-4.76-23.52 0-17.733 6.253-31.827 18.76-42.28 12.693-10.64 27.907-15.96 45.64-15.96 15.867 0 29.773 3.92 41.72 11.76 12.133 7.653 21.56 18.387 28.28 32.2l-32.48 18.76c-7.84-16.8-20.347-25.2-37.52-25.2-8.027 0-14.373 1.867-19.04 5.6-4.48 3.547-6.72 8.213-6.72 14 0 6.16 2.52 11.2 7.56 15.12 5.227 3.733 15.12 7.84 29.68 12.32 5.973 1.867 10.453 3.36 13.44 4.48 3.173.933 7.373 2.52 12.6 4.76 5.413 2.053 9.52 4.013 12.32 5.88 2.987 1.867 6.347 4.387 10.08 7.56 3.733 3.173 6.533 6.44 8.4 9.8 2.053 3.36 3.733 7.467 5.04 12.32 1.493 4.667 2.24 9.8 2.24 15.4 0 18.107-6.627 32.48-19.88 43.12-13.067 10.64-30.147 15.96-51.24 15.96z" fill="#3A3F49"/></svg>